<?xml version="1.0" encoding="utf-8"?>
<!-- Generator: Adobe Illustrator 19.2.1, SVG Export Plug-In . SVG Version: 6.00 Build 0)  -->
<svg version="1.1" id="layer" xmlns="http://www.w3.org/2000/svg" xmlns:xlink="http://www.w3.org/1999/xlink" x="0px" y="0px"
	 viewBox="0 0 652 652" style="enable-background:new 0 0 652 652;" xml:space="preserve">
<style type="text/css">
	.st0{fill:#164192;}
	.st1{fill:#E10614;}
	.st2{fill:#BE0D0D;}
	.st3{fill:#FFFFFF;}
</style>
<path class="st0" d="M219.5,355.4c24.8,25.5,67.7,40.2,120.7,40.2h0c29.7,0,61.3-4.4,93.9-13.2l1.5-0.4c5.1-1.3,12.7-3.4,18-5.9
	c3.4-1.6,11.2-6.1,8.8-11.7c-1.3-3-5.6-4.9-11.5-4.9c-1.6,0-3.2,0.1-4.8,0.4c-7.2,1.2-20.7,6.2-20.9,6.2
	c-35.5,12.3-71.8,18.8-105,18.8C277.5,385,242.5,374.5,219.5,355.4"/>
<path class="st1" d="M432.7,321.6c-2-4.8-7-7.6-13.8-7.6c-2,0-4.1,0.3-6.2,0.8v-25.4l34.6,15.5l0.1,27c-1.5-0.3-3.1-0.4-4.7-0.4
	c-2.2,0-4.5,0.3-6.8,0.8c-1.3,0.3-2.9,0.7-4.5,1.3C433.8,329.6,434.3,325.5,432.7,321.6 M201.9,328.3c21.7,23.9,56.7,37.1,99.9,37.1
	c31.3,0,66.3-7.1,101.2-20.5l1.4-0.5c4.6-1.8,11.6-4.4,16.3-7.4c6.6-4.3,9.4-9.2,7.6-13.6c-1.2-2.9-4.6-4.6-9.4-4.6
	c-1.8,0-3.8,0.2-5.7,0.8c-6.6,1.7-18.9,7.9-19,8c-37.2,17.8-75.1,27.3-109.6,27.3c-23.6,0-44.5-4.4-62-13
	C214.8,338.1,207.9,333.6,201.9,328.3 M208.7,340.7c7,6.1,15.2,11.2,24.5,15.5c19.4,8.9,42.5,13.5,68.8,13.5
	c36,0,75.5-8.7,114.3-25.2c0.1-0.1,13.5-6.1,20.6-7.6c2-0.4,3.9-0.6,5.8-0.6c5.3,0,9.3,1.8,10.6,4.8c2.6,6.2-5,11.4-8.4,13.4
	c-5.1,2.9-12.7,5.4-17.7,7.1l-1.5,0.5c-36.7,12.3-71.9,18.6-104.8,18.6C271.6,380.6,232.2,366.3,208.7,340.7 M409.9,315.6
	c-7,2.3-17,7.3-17.8,7.7c-12,5.7-24,10.6-36,14.5c0,0,0-0.1,0-0.1c0.5-0.7,0.9-1.5,1.3-2.2c0.1-0.2,0.2-0.3,0.3-0.5
	c0.4-0.7,0.7-1.4,1-2.1c0.1-0.3,0.2-0.6,0.3-0.8c0.2-0.5,0.4-1.1,0.6-1.6c0.2-0.5,0.3-1,0.5-1.5c0.1-0.4,0.3-0.9,0.4-1.3
	c0.1-0.4,0.2-0.9,0.3-1.3c0.2-0.6,0.3-1.2,0.4-1.8l0.5,0.3l0.5-0.2c0.3-0.1,7.8-2.8,9.1-12.7l0.1-0.8l-0.7-0.4
	c-0.1,0-3.1-1.6-8.5-3.7v-0.1l0-32.9l24.8,6.6v29.5L409.9,315.6 M282.7,348.3c0.6,0.5,1.2,1,1.8,1.5c0,0,0.1,0.1,0.3,0.2
	c0,0,0,0,0.1,0h-0.3c-22.9,0-43.1-4.2-59.9-12.5c-7.3-3.6-13.9-7.9-19.6-12.9c-0.1-0.1-0.1-0.1-0.2-0.2c-7-6.6-13.1-14.5-17.7-24.1
	l30.2-11.1v27.2l26.4-6.4v-29.5l23.8-6.6l0,36.1c-2.2,1.1-4.4,2.3-6.6,3.5l-0.7,0.4l0.2,0.9c0,0.3,1.3,6.3,6.9,8.8l0.6,0.2l0.5-0.3
	c0,0,0,0,0.1,0c0.1,0.6,0.3,1.3,0.4,1.9l0,0c0.6,2.5,1.4,4.9,2.4,7.2c0.1,0.1,0.1,0.3,0.2,0.4c0.2,0.5,0.5,1,0.7,1.5
	c0,0.1,0.1,0.2,0.2,0.3c0.5,0.9,1,1.9,1.5,2.8c0.1,0.1,0.2,0.3,0.3,0.4c0.2,0.4,0.5,0.7,0.7,1.1c0.2,0.3,0.4,0.5,0.5,0.8
	c0.2,0.3,0.5,0.7,0.7,1c0.2,0.3,0.5,0.6,0.7,1c0.2,0.3,0.4,0.5,0.6,0.8c0.4,0.6,0.9,1.1,1.4,1.6c0.2,0.2,0.3,0.4,0.5,0.5
	c0.4,0.4,0.7,0.8,1.1,1.2c0.2,0.2,0.4,0.4,0.6,0.6c0.4,0.4,0.8,0.7,1.1,1.1C282.4,348,282.6,348.1,282.7,348.3 M359.8,306.2
	c-9.6-3.4-24.9-7.6-42.8-7.6c-16.6,0-32.4,3.5-47.1,10.3l0-82.8c4.4-2,17.9-7,41.4-7c4,0,8.1,0.1,12.2,0.4
	c21.1,1.5,32.5,5.8,36.3,7.5L359.8,306.2 M354,336.6c0,0-0.5,1-1.6,2.4c-21.5,6.7-42.7,10.5-62.8,11c-2.3-1.2-3.6-2.1-3.6-2.1
	c-8-6.3-13.3-15.3-15.2-25.3c5.1-2.1,18.4-6.6,40.5-6.6c4,0,8.1,0.2,12.2,0.4c19.7,1.3,31,5.3,35.5,7.2c-0.9,4.7-2.5,9-5,12.9
	L354,336.6 M311.3,313.5c4,0,8.2,0.2,12.4,0.4c23.9,1.7,35.6,6.9,38.2,8.2c1.4-0.7,5.7-3.2,6.9-9.7c-4.2-2-24.9-11.5-51.8-11.5
	c-19.3,0-37.5,4.8-54,14.2c0.5,1.4,1.8,4.4,4.8,6C270.8,319.8,284.8,313.5,311.3,313.5 M311.3,216.7c4,0,8.2,0.1,12.4,0.4
	c23.9,1.7,35.6,6.9,38.2,8.2c1.4-0.7,5.7-3.2,6.9-9.7c-4.2-2-24.9-11.5-51.8-11.5c-19.3,0-37.5,4.8-54,14.2c0.5,1.4,1.8,4.4,4.8,6
	C270.8,223,284.8,216.7,311.3,216.7 M314.9,171.6c-24.6,0-45,18.3-46.3,41.2c15.1-7.3,31.4-11,48.5-11c18.3,0,33.6,4.1,43.8,7.9
	C358,188.2,338.2,171.6,314.9,171.6 M320.5,169.5c1-1.2,1.5-2.8,1.5-4.5c0-4-3.2-7.2-7.2-7.2c-4,0-7.2,3.2-7.2,7.2
	c0,1.7,0.6,3.2,1.5,4.5c1.9-0.2,3.7-0.3,5.7-0.3C316.8,169.2,318.7,169.3,320.5,169.5"/>
<path class="st2" d="M217.3,316.5v-27.2L233,298l0,14.7L217.3,316.5z M397,298v14.5l12.8,3.1c-0.6,0.2-1.1,0.4-1.7,0.6
	c1.4-0.5,2.7-0.9,3.8-1.2c0.2-0.1,0.5-0.1,0.7-0.2v-25.4L397,298z"/>
<path class="st0" d="M315.2,292.7c11.8,0,22.9,1.1,32.8,3.2v-63.7c-9.9-2-21.1-3.2-32.8-3.2c-12.3,0-23.8,1.2-34.1,3.4v63.7
	C291.3,293.9,302.9,292.7,315.2,292.7"/>
<path class="st3" d="M289.3,257l1.5,4.1l-8.1,14.1h7.2l1.1,14.6c1.4-0.2,3-0.4,4.5-0.6l1.1-14h7.2l-8.1-14.1l1.5-4.1l7.2,10.2l0,0
	l0.1,0.1l0,0l0,0l3.7,2.3l2-3l0.2,4.8l-2.5,16.8c1.1-0.1,2.1-0.1,3.2-0.2l2.7-12.1l2.6,12c1,0,2.1,0.1,3.2,0.1l-2.3-16.7l0.2-4.8
	l1.9,2.6l3.2-0.7l0,0l2-0.4l3.4-9.2l0.7,6.1l-4.1,23.4c1.6,0.1,3.1,0.3,4.5,0.4l4.3-18.3l0.2,1.9l4.3,17.5c1.6,0.3,3.1,0.5,4.5,0.8
	l-4-25.7l1.2-10.1l5.3-7.2l1.4-9.7c0.2-0.7-1.9-1.2-2-0.4l-2.6,9.3l-3.9,3.2l-2.1-0.4l-0.3-1.3c1.5-0.7,2.5-2.4,2.5-4.3
	c0-2.6-1.9-4.7-4.3-4.7c-2.4,0-4.3,2.1-4.3,4.7c0,1.9,1,3.6,2.5,4.3l-0.3,1.3l-4.4,1l-4.6,16l-2.5,0.3l-2.2-4.3l-2.7-0.6l-0.2-0.8
	c0.9-0.4,1.6-1.5,1.6-2.6c0-1.6-1.2-2.9-2.6-2.9c-1.4,0-2.6,1.3-2.6,2.9c0,1.2,0.7,2.2,1.6,2.6l-0.2,0.8l-2.7,0.6l-2.3,4.2l-2.1-1.2
	l-6.5-13.3l-4.2-0.9l-0.3-1.1l0,0v0c3.6,0.3,4.2-1.7,4.2-1.7c-1-0.8-1.3-2.4-1.4-3.1c0,0,0-0.1,0-0.1c0-0.1,0-0.2,0-0.2v0
	c-0.3-2.1-2-3.8-4-3.8c-2.2,0-4,1.9-4.1,4.3c-0.1,0.8-0.4,2.1-1.3,2.9c0,0,0.6,2,4.2,1.7l-0.3,1.1l-2.2,0.4l-3-2.6l-1.8-7.4
	c-0.2-0.7-2.3-0.3-2.1,0.4l1.9,8.6L289.3,257z"/>
<path class="st0" d="M104.7,463.9c-0.8,9.8-4.6,17.4-11.3,22.9c-6.8,5.4-15.8,8.1-27,8.1c-13,0-22.9-3.8-29.7-11.5
	c-6.8-7.3-10.3-18.1-10.3-32.4c0-14.6,3.5-25.6,10.5-32.9c7.2-7.6,17.5-11.5,31-11.5c11,0,19.8,2.7,26.3,8.1
	c6.2,5.2,9.7,12.5,10.5,22H93.9c-4,0-6.8-1.7-8.5-5.1c-1.2-2.1-2.6-4-4.2-5.6c-3.3-2.4-7.7-3.7-13.3-3.7c-7.7,0-13.6,2.4-17.8,7.3
	c-4,4.9-6,12-6,21.5c0,9.1,2,16.1,6,21c3.8,5,9.6,7.6,17.2,7.6c5.3,0,9.7-1.3,13.2-3.9c3.2-2.4,5.4-6.3,6.8-11.7H104.7z M116.7,487
	c3.3,2.9,7.8,5,13.4,6.2c5.6,1.2,11.1,1.1,16.6-0.4c6.1-1.3,11.2-4.6,15.2-10c1.8-2.6,3.4-5.8,4.5-9.5c1.1-3.7,1.8-8.2,1.8-13.4
	c0-7.2-1.4-13.4-4.3-18.8c-3-6-7.7-10.2-14-12.7c-5.5-2-11.7-2.5-18.5-1.6c-6.8,0.9-12.4,3.8-16.7,8.7c-2.7,2.9-4.6,6.6-5.9,11
	c-1.2,4.4-1.9,8.8-1.9,13.2c0,5.4,0.7,10.5,2.3,15.5C110.7,480.2,113.2,484.1,116.7,487 M128.7,444.1c1.2-1.1,3-2.1,5.5-2.8
	c2.5-0.7,5-0.7,7.5,0.1c2.5,0.8,4.7,2.7,6.6,5.6c1.9,2.9,2.9,7.3,2.9,13.2c-0.2,6.5-1.2,11.2-3.2,14.1c-2,2.9-4.3,4.8-6.9,5.5
	c-2.6,0.7-5.1,0.6-7.6-0.2c-2.5-0.9-4.2-2-5.3-3.3c-2.5-2.9-3.9-8.1-4.2-15.5C123.6,453.4,125.2,447.9,128.7,444.1 M228.9,454.8
	v-3.4c0-3.9,1.2-6.8,3.6-8.5c2.4-1.8,5.1-2.7,8.1-2.7c3,0,5.7,0.9,8.1,2.7c2.4,1.8,3.6,4.6,3.6,8.5v33.2c0,2.4,0.8,4.4,2.4,6
	c1.6,1.5,3.6,2.3,6.1,2.3h8.7v-38c0-11.4-3.1-18.9-9.3-22.7c-6.2-3.7-12.9-5.6-20.2-5.6c-3.7,0.2-7.2,0.7-10.6,1.6
	c-3.4,0.9-6.4,2.4-8.9,4.5c-3-2.4-6.3-4.1-10-4.9c-3.7-0.8-7.4-1.2-11.3-1.2c-7.2,0.3-13.7,2.4-19.6,6.1c-5.9,3.7-8.9,11.1-8.9,22.2
	v38h17.5v-41.5c0-3.9,1.2-6.8,3.5-8.5c2.3-1.8,5-2.7,8-2.7c3,0,5.7,0.9,8.1,2.7c2.4,1.8,3.6,4.6,3.6,8.5v3.4v38h17.2V454.8z
	 M290.3,492.9v-49h2.5c2.2,0,4.1-0.8,5.7-2.3c1.7-1.5,2.5-3.5,2.5-6v-3.7h-10.7v-4.4c0-1.9,0.4-3.2,1.2-3.9c1-0.7,2.7-1,5-1h4.5
	v-13.4c-1-0.2-2.4-0.2-4.2-0.2c-1-0.2-2.3-0.2-4-0.2c-6.8,0-11.8,1.4-14.7,4.1c-3.2,2.9-4.7,7.3-4.7,13.2v66.8H290.3z M346.1,472.9
	c-2,0-3.5,0.4-4.6,1.2c-1.1,0.8-1.7,1.5-1.9,1.9c-0.5,0.5-1,0.9-1.4,1.3c-0.4,0.4-0.9,0.7-1.4,0.9c-2,1.1-4.4,1.7-7.3,1.7
	c-4.3,0-7.6-1.3-9.8-3.9c-2.3-2.4-3.6-6.2-3.7-11.2h43.2c0.2-0.3,0.2-0.9,0.2-1.7v-1v-1.7c0-10.7-2.7-19.1-8-25.1
	c-5.5-5.9-13.3-8.8-23.2-8.8c-9.5,0-16.9,3-22.3,9c-5.2,5.9-7.7,14-7.7,24.4c0,10.9,2.7,19.3,8,25.1c5.3,6,12.7,9,22.3,9
	c7.8,0,14.3-1.9,19.5-5.6c5.2-3.6,8.7-8.8,10.5-15.6H346.1 M316.1,453.9c0.1-4.2,1.4-7.5,3.7-9.8c2.3-2.3,5.3-3.4,9-3.4
	c4,0,7.1,1.1,9.3,3.4c2,2.1,3.2,5.4,3.5,9.8H316.1 M420.4,454.8c0-11.4-3.1-18.9-9.2-22.7c-6.2-3.7-12.9-5.6-20.2-5.6
	c-7.2,0.3-13.7,2.4-19.6,6.1c-5.9,3.7-8.9,11.1-8.9,22.2v38h17.5v-41.5c0-3.9,1.2-6.8,3.5-8.5c2.3-1.8,5-2.7,8-2.7
	c3,0,5.7,0.9,8.1,2.7c2.4,1.8,3.6,4.6,3.6,8.5v33.2c0,2.4,0.8,4.4,2.4,6c1.6,1.5,3.6,2.3,6.1,2.3h8.7V454.8z M467,490.2
	c3.3-1.6,6.2-4.3,8.6-7.9c2.4-3.6,3.6-8.7,3.6-15.2v-22.2c0-5.9-2.4-10.4-7.2-13.7c-4.7-3.1-11.7-4.6-21-4.6
	c-8.3,0-14.7,1.9-19.3,5.6c-4,3.3-6.3,7.4-7,12.4h16.8c0.8-1.8,2.2-3,4-3.7c1.8-0.6,3.9-1,6.3-1c2.2,0,4.5,0.4,7.1,1.1
	c2.6,0.7,3.9,2.3,3.9,4.8c0,3.2-3.7,5.4-11,6.3c-1.5,0.2-2.8,0.4-4,0.6c-1.2,0.3-2.2,0.4-3,0.4c-6.3,1-11.5,2.9-15.6,5.9
	c-4.1,2.9-6.1,7.8-6.1,14.6c0,7.3,2.3,12.6,6.7,15.7c4.5,3.2,9.8,4.8,15.8,4.8c3,0,6.4-0.2,10.4-0.6
	C459.8,493.1,463.5,492,467,490.2 M463,466.3c0,4.6-1.3,8.1-4,10.7c-2.7,2.6-6.3,3.9-11,3.9c-2.8,0-5-0.7-6.5-1.9
	c-1.5-1.5-2.3-3.4-2.3-5.8c0-1.8,0.6-3.6,1.8-5.4c1.3-1.3,3.5-2.3,6.5-3.2l5.8-1.2c4.2-1,7.4-2,9.7-3.2V466.3z M482.5,492.9H500
	v-75.8c0-2.3-0.8-4.2-2.5-5.8c-1.7-1.5-3.7-2.3-6-2.3h-9V492.9z M550.6,472.9c-2,0-3.5,0.4-4.5,1.2c-1,0.8-1.7,1.5-2,1.9
	c-0.5,0.5-1,0.9-1.4,1.3c-0.4,0.4-0.9,0.7-1.4,0.9c-2,1.1-4.4,1.7-7.3,1.7c-4.3,0-7.6-1.3-9.7-3.9c-3-3.1-4.5-8.4-4.5-15.9
	c0-7.5,1.5-12.9,4.5-16.1c2.3-2.3,5.3-3.4,9-3.4c4,0,7.1,1.1,9.2,3.4c0.8,0.8,1.7,2,2.5,3.7h17.5c-1.3-4.7-3.5-8.9-6.5-12.4
	c-5.5-5.9-13.2-8.8-23.2-8.8c-9.5,0-16.9,3-22.2,9c-5.2,5.9-7.8,14-7.8,24.4c0,10.9,2.7,19.3,8,25.1c5.3,6,12.8,9,22.3,9
	c7.8,0,14.3-1.9,19.5-5.6c5.2-3.6,8.7-8.8,10.5-15.6H550.6 M574.9,487c3.3,2.9,7.8,5,13.4,6.2c5.6,1.2,11.1,1.1,16.6-0.4
	c6.2-1.3,11.2-4.6,15.2-10c1.8-2.6,3.3-5.8,4.5-9.5c1.2-3.7,1.8-8.2,1.8-13.4c0-7.2-1.4-13.4-4.3-18.8c-3-6-7.7-10.2-14-12.7
	c-5.5-2-11.7-2.5-18.5-1.6c-6.8,0.9-12.4,3.8-16.7,8.7c-2.7,2.9-4.6,6.6-5.9,11c-1.3,4.4-1.9,8.8-1.9,13.2c0,5.4,0.8,10.5,2.3,15.5
	C568.9,480.2,571.4,484.1,574.9,487 M586.9,444.1c1.2-1.1,3-2.1,5.5-2.8c2.5-0.7,5-0.7,7.5,0.1c2.5,0.8,4.7,2.7,6.6,5.6
	c1.9,2.9,2.9,7.3,2.9,13.2c-0.2,6.5-1.3,11.2-3.3,14.1c-2,2.9-4.3,4.8-6.9,5.5c-2.6,0.7-5.1,0.6-7.6-0.2c-2.5-0.9-4.3-2-5.2-3.3
	c-2.5-2.9-3.9-8.1-4.3-15.5C581.8,453.4,583.4,447.9,586.9,444.1"/>
</svg>
