<?xml version="1.0" encoding="utf-8"?>
<!-- Generator: Adobe Illustrator 24.0.0, SVG Export Plug-In . SVG Version: 6.00 Build 0)  -->
<svg version="1.1" id="layer" xmlns="http://www.w3.org/2000/svg" xmlns:xlink="http://www.w3.org/1999/xlink" x="0px" y="0px"
	 viewBox="0 0 1281.6 331.2" style="enable-background:new 0 0 1281.6 331.2;" xml:space="preserve">
<style type="text/css">
	.st0{fill:#164192;}
	.st1{fill:#E10614;}
	.st2{fill:#BE0D0D;}
	.st3{fill:#FFFFFF;}
</style>
<path class="st0" d="M71.4,237c24.8,25.5,67.7,40.2,120.7,40.2l0,0c29.7,0,61.3-4.4,93.9-13.2l1.5-0.4c5.1-1.3,12.7-3.4,18-5.9
	c3.4-1.6,11.2-6.1,8.8-11.7c-1.3-3-5.6-4.9-11.5-4.9c-1.6,0-3.2,0.1-4.8,0.4c-7.2,1.2-20.7,6.2-20.9,6.2
	c-35.5,12.3-71.8,18.8-105,18.8C129.4,266.6,94.4,256.1,71.4,237"/>
<path class="st1" d="M284.6,203.2c-2-4.8-7-7.6-13.8-7.6c-2,0-4.1,0.3-6.2,0.8V171l34.6,15.5l0.1,27c-1.5-0.3-3.1-0.4-4.7-0.4
	c-2.2,0-4.5,0.3-6.8,0.8c-1.3,0.3-2.9,0.7-4.5,1.3C285.7,211.2,286.2,207.1,284.6,203.2 M53.8,209.9c21.7,23.9,56.7,37.1,99.9,37.1
	c31.3,0,66.3-7.1,101.2-20.5l1.4-0.5c4.6-1.8,11.6-4.4,16.3-7.4c6.6-4.3,9.4-9.2,7.6-13.6c-1.2-2.9-4.6-4.6-9.4-4.6
	c-1.8,0-3.8,0.2-5.7,0.8c-6.6,1.7-18.9,7.9-19,8c-37.2,17.8-75.1,27.3-109.6,27.3c-23.6,0-44.5-4.4-62-13
	C66.7,219.7,59.8,215.2,53.8,209.9 M60.6,222.3c7,6.1,15.2,11.2,24.5,15.5c19.4,8.9,42.5,13.5,68.8,13.5c36,0,75.5-8.7,114.3-25.2
	c0.1-0.1,13.5-6.1,20.6-7.6c2-0.4,3.9-0.6,5.8-0.6c5.3,0,9.3,1.8,10.6,4.8c2.6,6.2-5,11.4-8.4,13.4c-5.1,2.9-12.7,5.4-17.7,7.1
	l-1.5,0.5c-36.7,12.3-71.9,18.6-104.8,18.6C123.5,262.2,84.1,247.9,60.6,222.3 M261.8,197.2c-7,2.3-17,7.3-17.8,7.7
	c-12,5.7-24,10.6-36,14.5v-0.1c0.5-0.7,0.9-1.5,1.3-2.2c0.1-0.2,0.2-0.3,0.3-0.5c0.4-0.7,0.7-1.4,1-2.1c0.1-0.3,0.2-0.6,0.3-0.8
	c0.2-0.5,0.4-1.1,0.6-1.6s0.3-1,0.5-1.5c0.1-0.4,0.3-0.9,0.4-1.3s0.2-0.9,0.3-1.3c0.2-0.6,0.3-1.2,0.4-1.8l0.5,0.3l0.5-0.2
	c0.3-0.1,7.8-2.8,9.1-12.7l0.1-0.8l-0.7-0.4c-0.1,0-3.1-1.6-8.5-3.7v-0.1v-32.9l24.8,6.6v29.5L261.8,197.2 M134.6,229.9
	c0.6,0.5,1.2,1,1.8,1.5c0,0,0.1,0.1,0.3,0.2c0,0,0,0,0.1,0h-0.3c-22.9,0-43.1-4.2-59.9-12.5c-7.3-3.6-13.9-7.9-19.6-12.9
	c-0.1-0.1-0.1-0.1-0.2-0.2c-7-6.6-13.1-14.5-17.7-24.1l30.2-11.1V198l26.4-6.4v-29.5l23.8-6.6v36.1c-2.2,1.1-4.4,2.3-6.6,3.5
	l-0.7,0.4l0.2,0.9c0,0.3,1.3,6.3,6.9,8.8l0.6,0.2l0.5-0.3c0,0,0,0,0.1,0c0.1,0.6,0.3,1.3,0.4,1.9l0,0c0.6,2.5,1.4,4.9,2.4,7.2
	c0.1,0.1,0.1,0.3,0.2,0.4c0.2,0.5,0.5,1,0.7,1.5c0,0.1,0.1,0.2,0.2,0.3c0.5,0.9,1,1.9,1.5,2.8c0.1,0.1,0.2,0.3,0.3,0.4
	c0.2,0.4,0.5,0.7,0.7,1.1c0.2,0.3,0.4,0.5,0.5,0.8c0.2,0.3,0.5,0.7,0.7,1c0.2,0.3,0.5,0.6,0.7,1c0.2,0.3,0.4,0.5,0.6,0.8
	c0.4,0.6,0.9,1.1,1.4,1.6c0.2,0.2,0.3,0.4,0.5,0.5c0.4,0.4,0.7,0.8,1.1,1.2c0.2,0.2,0.4,0.4,0.6,0.6c0.4,0.4,0.8,0.7,1.1,1.1
	C134.3,229.6,134.5,229.7,134.6,229.9 M211.7,187.8c-9.6-3.4-24.9-7.6-42.8-7.6c-16.6,0-32.4,3.5-47.1,10.3v-82.8
	c4.4-2,17.9-7,41.4-7c4,0,8.1,0.1,12.2,0.4c21.1,1.5,32.5,5.8,36.3,7.5V187.8 M205.9,218.2c0,0-0.5,1-1.6,2.4
	c-21.5,6.7-42.7,10.5-62.8,11c-2.3-1.2-3.6-2.1-3.6-2.1c-8-6.3-13.3-15.3-15.2-25.3c5.1-2.1,18.4-6.6,40.5-6.6c4,0,8.1,0.2,12.2,0.4
	c19.7,1.3,31,5.3,35.5,7.2c-0.9,4.7-2.5,9-5,12.9V218.2 M163.2,195.1c4,0,8.2,0.2,12.4,0.4c23.9,1.7,35.6,6.9,38.2,8.2
	c1.4-0.7,5.7-3.2,6.9-9.7c-4.2-2-24.9-11.5-51.8-11.5c-19.3,0-37.5,4.8-54,14.2c0.5,1.4,1.8,4.4,4.8,6
	C122.7,201.4,136.7,195.1,163.2,195.1 M163.2,98.3c4,0,8.2,0.1,12.4,0.4c23.9,1.7,35.6,6.9,38.2,8.2c1.4-0.7,5.7-3.2,6.9-9.7
	c-4.2-2-24.9-11.5-51.8-11.5c-19.3,0-37.5,4.8-54,14.2c0.5,1.4,1.8,4.4,4.8,6C122.7,104.6,136.7,98.3,163.2,98.3 M166.8,53.2
	c-24.6,0-45,18.3-46.3,41.2c15.1-7.3,31.4-11,48.5-11c18.3,0,33.6,4.1,43.8,7.9C209.9,69.8,190.1,53.2,166.8,53.2 M172.4,51.1
	c1-1.2,1.5-2.8,1.5-4.5c0-4-3.2-7.2-7.2-7.2s-7.2,3.2-7.2,7.2c0,1.7,0.6,3.2,1.5,4.5c1.9-0.2,3.7-0.3,5.7-0.3S170.6,50.9,172.4,51.1
	"/>
<path class="st2" d="M69.2,198.1v-27.2l15.7,8.7v14.7L69.2,198.1z M248.9,179.6v14.5l12.8,3.1c-0.6,0.2-1.1,0.4-1.7,0.6
	c1.4-0.5,2.7-0.9,3.8-1.2c0.2-0.1,0.5-0.1,0.7-0.2V171L248.9,179.6z"/>
<path class="st0" d="M167.1,174.3c11.8,0,22.9,1.1,32.8,3.2v-63.7c-9.9-2-21.1-3.2-32.8-3.2c-12.3,0-23.8,1.2-34.1,3.4v63.7
	C143.2,175.5,154.8,174.3,167.1,174.3"/>
<path class="st3" d="M141.2,138.6l1.5,4.1l-8.1,14.1h7.2l1.1,14.6c1.4-0.2,3-0.4,4.5-0.6l1.1-14h7.2l-8.1-14.1l1.5-4.1l7.2,10.2l0,0
	l0.1,0.1l0,0l0,0l3.7,2.3l2-3l0.2,4.8l-2.5,16.8c1.1-0.1,2.1-0.1,3.2-0.2l2.7-12.1l2.6,12c1,0,2.1,0.1,3.2,0.1l-2.3-16.7l0.2-4.8
	l1.9,2.6l3.2-0.7l0,0l2-0.4l3.4-9.2l0.7,6.1l-4.1,23.4c1.6,0.1,3.1,0.3,4.5,0.4l4.3-18.3l0.2,1.9l4.3,17.5c1.6,0.3,3.1,0.5,4.5,0.8
	l-4-25.7l1.2-10.1l5.3-7.2l1.4-9.7c0.2-0.7-1.9-1.2-2-0.4l-2.6,9.3l-3.9,3.2l-2.1-0.4l-0.3-1.3c1.5-0.7,2.5-2.4,2.5-4.3
	c0-2.6-1.9-4.7-4.3-4.7s-4.3,2.1-4.3,4.7c0,1.9,1,3.6,2.5,4.3l-0.3,1.3l-4.4,1l-4.6,16l-2.5,0.3l-2.2-4.3l-2.7-0.6l-0.2-0.8
	c0.9-0.4,1.6-1.5,1.6-2.6c0-1.6-1.2-2.9-2.6-2.9s-2.6,1.3-2.6,2.9c0,1.2,0.7,2.2,1.6,2.6l-0.2,0.8l-2.7,0.6l-2.3,4.2l-2.1-1.2
	l-6.5-13.3l-4.2-0.9l-0.3-1.1l0,0l0,0c3.6,0.3,4.2-1.7,4.2-1.7c-1-0.8-1.3-2.4-1.4-3.1V127c0-0.1,0-0.2,0-0.2l0,0
	c-0.3-2.1-2-3.8-4-3.8c-2.2,0-4,1.9-4.1,4.3c-0.1,0.8-0.4,2.1-1.3,2.9c0,0,0.6,2,4.2,1.7l-0.3,1.1l-2.2,0.4l-3-2.6l-1.8-7.4
	c-0.2-0.7-2.3-0.3-2.1,0.4l1.9,8.6L141.2,138.6z"/>
<path class="st0" d="M455.6,188.8c-1.1,13.8-6.5,24.5-15.9,32.3c-9.6,7.6-22.3,11.4-38,11.4c-18.3,0-32.3-5.4-41.8-16.2
	c-9.6-10.3-14.5-25.5-14.5-45.6c0-20.6,4.9-36.1,14.8-46.3c10.1-10.7,24.6-16.2,43.7-16.2c15.5,0,27.9,3.8,37,11.4
	c8.7,7.3,13.7,17.6,14.8,31h-15.2c-5.6,0-9.6-2.4-12-7.2c-1.7-3-3.7-5.6-5.9-7.9c-4.6-3.4-10.8-5.2-18.7-5.2
	c-10.8,0-19.2,3.4-25.1,10.3c-5.6,6.9-8.4,16.9-8.4,30.3c0,12.8,2.8,22.7,8.4,29.6c5.4,7,13.5,10.7,24.2,10.7
	c7.5,0,13.7-1.8,18.6-5.5c4.5-3.4,7.6-8.9,9.6-16.5h24.5V188.8z M472.5,221.3c4.6,4.1,11,7,18.9,8.7c7.9,1.7,15.6,1.5,23.4-0.6
	c8.6-1.8,15.8-6.5,21.4-14.1c2.5-3.7,4.8-8.2,6.3-13.4c1.5-5.2,2.5-11.5,2.5-18.9c0-10.1-2-18.9-6.1-26.5
	c-4.2-8.4-10.8-14.4-19.7-17.9c-7.7-2.8-16.5-3.5-26.1-2.3s-17.5,5.4-23.5,12.3c-3.8,4.1-6.5,9.3-8.3,15.5
	c-1.7,6.2-2.7,12.4-2.7,18.6c0,7.6,1,14.8,3.2,21.8C464,211.8,467.5,217.2,472.5,221.3 M489.4,160.9c1.7-1.5,4.2-3,7.7-3.9
	c3.5-1,7-1,10.6,0.1c3.5,1.1,6.6,3.8,9.3,7.9c2.7,4.1,4.1,10.3,4.1,18.6c-0.3,9.2-1.7,15.8-4.5,19.9c-2.8,4.1-6.1,6.8-9.7,7.7
	c-3.7,1-7.2,0.8-10.7-0.3c-3.5-1.3-5.9-2.8-7.5-4.6c-3.5-4.1-5.5-11.4-5.9-21.8C482.2,174,484.4,166.3,489.4,160.9 M630.5,176v-4.8
	c0-5.5,1.7-9.6,5.1-12c3.4-2.5,7.2-3.8,11.4-3.8c4.2,0,8,1.3,11.4,3.8c3.4,2.5,5.1,6.5,5.1,12V218c0,3.4,1.1,6.2,3.4,8.4
	c2.3,2.1,5.1,3.2,8.6,3.2h12.3v-53.5c0-16.1-4.4-26.6-13.1-32c-8.7-5.2-18.2-7.9-28.4-7.9c-5.2,0.3-10.1,1-14.9,2.3
	c-4.8,1.3-9,3.4-12.5,6.3c-4.2-3.4-8.9-5.8-14.1-6.9s-10.4-1.7-15.9-1.7c-10.1,0.4-19.3,3.4-27.6,8.6c-8.3,5.2-12.5,15.6-12.5,31.3
	v53.5h24.6v-58.4c0-5.5,1.7-9.6,4.9-12c3.2-2.5,7-3.8,11.3-3.8c4.2,0,8,1.3,11.4,3.8c3.4,2.5,5.1,6.5,5.1,12v4.8v53.5h24.2V176
	H630.5z M717,229.6v-69h3.5c3.1,0,5.8-1.1,8-3.2c2.4-2.1,3.5-4.9,3.5-8.4v-5.2H717v-6.2c0-2.7,0.6-4.5,1.7-5.5c1.4-1,3.8-1.4,7-1.4
	h6.3v-18.9c-1.4-0.3-3.4-0.3-5.9-0.3c-1.4-0.3-3.2-0.3-5.6-0.3c-9.6,0-16.6,2-20.7,5.8c-4.5,4.1-6.6,10.3-6.6,18.6v94.1L717,229.6
	L717,229.6z M795.5,201.5c-2.8,0-4.9,0.6-6.5,1.7c-1.5,1.1-2.4,2.1-2.7,2.7c-0.7,0.7-1.4,1.3-2,1.8c-0.6,0.6-1.3,1-2,1.3
	c-2.8,1.5-6.2,2.4-10.3,2.4c-6.1,0-10.7-1.8-13.8-5.5c-3.2-3.4-5.1-8.7-5.2-15.8H814c0.3-0.4,0.3-1.3,0.3-2.4v-1.4v-2.4
	c0-15.1-3.8-26.9-11.3-35.3c-7.7-8.3-18.7-12.4-32.7-12.4c-13.4,0-23.8,4.2-31.4,12.7c-7.3,8.3-10.8,19.7-10.8,34.4
	c0,15.4,3.8,27.2,11.3,35.3c7.5,8.4,17.9,12.7,31.4,12.7c11,0,20.1-2.7,27.5-7.9c7.3-5.1,12.3-12.4,14.8-22h-17.5 M753.3,174.7
	c0.1-5.9,2-10.6,5.2-13.8c3.2-3.2,7.5-4.8,12.7-4.8c5.6,0,10,1.5,13.1,4.8c2.8,3,4.5,7.6,4.9,13.8H753.3 M900.2,176
	c0-16.1-4.4-26.6-13-32c-8.7-5.2-18.2-7.9-28.4-7.9c-10.1,0.4-19.3,3.4-27.6,8.6c-8.3,5.2-12.5,15.6-12.5,31.3v53.5h24.6v-58.4
	c0-5.5,1.7-9.6,4.9-12c3.2-2.5,7-3.8,11.3-3.8s8,1.3,11.4,3.8c3.4,2.5,5.1,6.5,5.1,12v46.8c0,3.4,1.1,6.2,3.4,8.4
	c2.3,2.1,5.1,3.2,8.6,3.2h12.3V176z M965.8,225.8c4.6-2.3,8.7-6.1,12.1-11.1c3.4-5.1,5.1-12.3,5.1-21.4V162
	c0-8.3-3.4-14.6-10.1-19.3c-6.6-4.4-16.5-6.5-29.6-6.5c-11.7,0-20.7,2.7-27.2,7.9c-5.6,4.6-8.9,10.4-9.9,17.5h23.7
	c1.1-2.5,3.1-4.2,5.6-5.2c2.5-0.8,5.5-1.4,8.9-1.4c3.1,0,6.3,0.6,10,1.5c3.7,1,5.5,3.2,5.5,6.8c0,4.5-5.2,7.6-15.5,8.9
	c-2.1,0.3-3.9,0.6-5.6,0.8c-1.7,0.4-3.1,0.6-4.2,0.6c-8.9,1.4-16.2,4.1-22,8.3c-5.8,4.1-8.6,11-8.6,20.6c0,10.3,3.2,17.7,9.4,22.1
	c6.3,4.5,13.8,6.8,22.3,6.8c4.2,0,9-0.3,14.6-0.8C955.7,229.9,960.9,228.4,965.8,225.8 M960.2,192.2c0,6.5-1.8,11.4-5.6,15.1
	c-3.8,3.7-8.9,5.5-15.5,5.5c-3.9,0-7-1-9.2-2.7c-2.1-2.1-3.2-4.8-3.2-8.2c0-2.5,0.8-5.1,2.5-7.6c1.8-1.8,4.9-3.2,9.2-4.5l8.2-1.7
	c5.9-1.4,10.4-2.8,13.7-4.5V192.2z M987.6,229.6h24.6V122.9c0-3.2-1.1-5.9-3.5-8.2c-2.4-2.1-5.2-3.2-8.4-3.2h-12.7V229.6z
	 M1083.5,201.5c-2.8,0-4.9,0.6-6.3,1.7c-1.4,1.1-2.4,2.1-2.8,2.7c-0.7,0.7-1.4,1.3-2,1.8s-1.3,1-2,1.3c-2.8,1.5-6.2,2.4-10.3,2.4
	c-6.1,0-10.7-1.8-13.7-5.5c-4.2-4.4-6.3-11.8-6.3-22.4c0-10.6,2.1-18.2,6.3-22.7c3.2-3.2,7.5-4.8,12.7-4.8c5.6,0,10,1.5,13,4.8
	c1.1,1.1,2.4,2.8,3.5,5.2h24.6c-1.8-6.6-4.9-12.5-9.2-17.5c-7.7-8.3-18.6-12.4-32.7-12.4c-13.4,0-23.8,4.2-31.3,12.7
	c-7.3,8.3-11,19.7-11,34.4c0,15.4,3.8,27.2,11.3,35.3c7.5,8.4,18,12.7,31.4,12.7c11,0,20.1-2.7,27.5-7.9c7.3-5.1,12.3-12.4,14.8-22
	h-17.6 M1117.8,221.3c4.6,4.1,11,7,18.9,8.7c7.9,1.7,15.6,1.5,23.4-0.6c8.7-1.8,15.8-6.5,21.4-14.1c2.5-3.7,4.6-8.2,6.3-13.4
	c1.7-5.2,2.5-11.5,2.5-18.9c0-10.1-2-18.9-6.1-26.5c-4.2-8.4-10.8-14.4-19.7-17.9c-7.7-2.8-16.5-3.5-26.1-2.3
	c-9.6,1.3-17.5,5.4-23.5,12.3c-3.8,4.1-6.5,9.3-8.3,15.5c-1.8,6.2-2.7,12.4-2.7,18.6c0,7.6,1.1,14.8,3.2,21.8
	C1109.3,211.8,1112.8,217.2,1117.8,221.3 M1134.7,160.9c1.7-1.5,4.2-3,7.7-3.9c3.5-1,7-1,10.6,0.1c3.5,1.1,6.6,3.8,9.3,7.9
	c2.7,4.1,4.1,10.3,4.1,18.6c-0.3,9.2-1.8,15.8-4.6,19.9c-2.8,4.1-6.1,6.8-9.7,7.7c-3.7,1-7.2,0.8-10.7-0.3c-3.5-1.3-6.1-2.8-7.3-4.6
	c-3.5-4.1-5.5-11.4-6.1-21.8C1127.5,174,1129.7,166.3,1134.7,160.9"/>
</svg>
